<?xml version="1.0" encoding="UTF-8" standalone="no"?>
<svg
   inkscape:version="1.2.1 (9c6d41e410, 2022-07-14)"
   sodipodi:docname="ic_logo_white.svg"
   id="svg2239"
   preserveAspectRatio="xMidYMid"
   viewBox="0 0 512 512"
   height="512"
   width="512"
   version="1.0"
   xmlns:inkscape="http://www.inkscape.org/namespaces/inkscape"
   xmlns:sodipodi="http://sodipodi.sourceforge.net/DTD/sodipodi-0.dtd"
   xmlns="http://www.w3.org/2000/svg"
   xmlns:svg="http://www.w3.org/2000/svg"
   xmlns:rdf="http://www.w3.org/1999/02/22-rdf-syntax-ns#"
   xmlns:cc="http://creativecommons.org/ns#"
   xmlns:dc="http://purl.org/dc/elements/1.1/">
  <metadata
     id="metadata2245">
    <rdf:RDF>
      <cc:Work
         rdf:about="">
        <dc:format>image/svg+xml</dc:format>
        <dc:type
           rdf:resource="http://purl.org/dc/dcmitype/StillImage" />
      </cc:Work>
    </rdf:RDF>
  </metadata>
  <defs
     id="defs2243" />
  <sodipodi:namedview
     units="px"
     lock-margins="true"
     fit-margin-bottom="0"
     fit-margin-right="0"
     fit-margin-left="0"
     fit-margin-top="0"
     inkscape:current-layer="g2237"
     inkscape:window-maximized="0"
     inkscape:window-y="146"
     inkscape:window-x="138"
     inkscape:cy="511.21747"
     inkscape:cx="230.84388"
     inkscape:zoom="0.56531714"
     showgrid="false"
     id="namedview2241"
     inkscape:window-height="867"
     inkscape:window-width="1408"
     inkscape:pageshadow="2"
     inkscape:pageopacity="0"
     guidetolerance="10"
     gridtolerance="10"
     objecttolerance="10"
     borderopacity="1"
     bordercolor="#666666"
     pagecolor="#ffffff"
     inkscape:document-rotation="0"
     inkscape:showpageshadow="2"
     inkscape:pagecheckerboard="true"
     inkscape:deskcolor="#d1d1d1" />
  <g
     id="g2237"
     stroke="none"
     fill="#000000"
     transform="matrix(0.30726743,0,0,-0.30726743,-315.23399,1012.1613)"
     style="fill:#005bbb;fill-opacity:1">
    <g
       id="g2299"
       transform="translate(-82.179221,-5.4157395e-5)">
      <path
         id="path2233"
         d="m 1783.2682,3147.7339 -149.2114,-149.2115 149.9429,-149.9428 c 82.6514,-82.6515 152.1371,-149.9429 155.0628,-149.9429 3.6572,0 5.8514,49.7372 5.8514,109.7143 v 109.7143 h 27.7943 c 14.6286,0 48.2743,-5.12 74.6057,-11.7029 163.1086,-38.0343 301.3486,-176.2743 339.3829,-339.3828 21.2114,-89.9658 11.7029,-202.6058 -23.4057,-285.9886 l -14.6286,-33.6457 56.32,-56.32 56.32,-56.32 30.72,64.3657 c 40.2286,86.3086 52.6629,136.7771 57.7829,232.5943 13.1657,262.5828 -138.24,498.8343 -381.8057,596.8457 -59.2458,23.4057 -147.0172,43.1543 -194.56,43.1543 h -28.5258 v 108.9828 c 0,60.7086 -2.9257,111.1772 -5.8514,113.3715 -3.6571,2.1943 -73.1428,-63.6343 -155.7943,-146.2857 z"
         style="fill:#ffffff;fill-opacity:1;stroke-width:0.731429" />
      <path
         id="path2235"
         d="m 1390.4911,2722.7739 c -40.2286,-86.3086 -52.6629,-136.7772 -57.7829,-232.5943 -13.1657,-262.5829 138.24,-498.8343 381.8057,-596.8458 59.2458,-23.4057 147.0172,-43.1542 194.56,-43.1542 h 28.5258 v -108.9829 c 0,-60.7086 2.9257,-111.1771 5.8514,-113.3714 3.6571,-2.1943 73.1428,63.6343 155.7943,146.2857 l 149.2114,149.2114 -149.9429,149.9429 c -82.6514,82.6514 -152.1371,149.9428 -155.0628,149.9428 -3.6572,0 -5.8514,-49.0057 -5.8514,-109.7143 v -109.7142 h -27.0629 c -15.36,0 -49.0057,5.12 -75.3371,11.7028 -163.1086,38.0343 -301.3486,176.2743 -339.3829,339.3829 -21.2114,89.9657 -11.7029,202.6057 23.4057,285.9886 l 14.6286,33.6457 -56.32,56.32 -56.32,56.32 z"
         style="fill:#ffffff;fill-opacity:1;stroke-width:0.731429" />
    </g>
  </g>
</svg>
