<?xml version="1.0" encoding="UTF-8" standalone="no"?>
<svg
   inkscape:version="1.2.1 (9c6d41e410, 2022-07-14)"
   sodipodi:docname="ic_launcher_foreground.svg"
   id="svg2239"
   preserveAspectRatio="xMidYMid"
   viewBox="0 0 108 108"
   height="108"
   width="108"
   version="1.0"
   xmlns:inkscape="http://www.inkscape.org/namespaces/inkscape"
   xmlns:sodipodi="http://sodipodi.sourceforge.net/DTD/sodipodi-0.dtd"
   xmlns="http://www.w3.org/2000/svg"
   xmlns:svg="http://www.w3.org/2000/svg"
   xmlns:rdf="http://www.w3.org/1999/02/22-rdf-syntax-ns#"
   xmlns:cc="http://creativecommons.org/ns#"
   xmlns:dc="http://purl.org/dc/elements/1.1/">
  <metadata
     id="metadata2245">
    <rdf:RDF>
      <cc:Work
         rdf:about="">
        <dc:format>image/svg+xml</dc:format>
        <dc:type
           rdf:resource="http://purl.org/dc/dcmitype/StillImage" />
      </cc:Work>
    </rdf:RDF>
  </metadata>
  <defs
     id="defs2243" />
  <sodipodi:namedview
     units="px"
     lock-margins="true"
     fit-margin-bottom="0"
     fit-margin-right="0"
     fit-margin-left="0"
     fit-margin-top="0"
     inkscape:current-layer="svg2239"
     inkscape:window-maximized="0"
     inkscape:window-y="87"
     inkscape:window-x="87"
     inkscape:cy="48.5"
     inkscape:cx="52.666667"
     inkscape:zoom="3"
     showgrid="false"
     id="namedview2241"
     inkscape:window-height="758"
     inkscape:window-width="1151"
     inkscape:pageshadow="2"
     inkscape:pageopacity="0"
     guidetolerance="10"
     gridtolerance="10"
     objecttolerance="10"
     borderopacity="1"
     bordercolor="#666666"
     pagecolor="#ffffff"
     inkscape:document-rotation="0"
     inkscape:showpageshadow="2"
     inkscape:pagecheckerboard="true"
     inkscape:deskcolor="#d1d1d1" />
  <g
     id="g2237"
     stroke="none"
     fill="#000000"
     transform="matrix(0.02370349,0,0,-0.02370349,2.6819442,105.08102)"
     style="fill:#005bbb;fill-opacity:1">
    <path
       id="path2233"
       d="m 1949,3094 -204,-204 205,-205 c 113,-113 208,-205 212,-205 5,0 8,68 8,150 v 150 h 38 c 20,0 66,-7 102,-16 223,-52 412,-241 464,-464 29,-123 16,-277 -32,-391 l -20,-46 77,-77 77,-77 42,88 c 55,118 72,187 79,318 18,359 -189,682 -522,816 -81,32 -201,59 -266,59 h -39 v 149 c 0,83 -4,152 -8,155 -5,3 -100,-87 -213,-200 z"
       style="fill:#005bbb;fill-opacity:1" />
    <path
       id="path2235"
       d="m 1412,2513 c -55,-118 -72,-187 -79,-318 -18,-359 189,-682 522,-816 81,-32 201,-59 266,-59 h 39 v -149 c 0,-83 4,-152 8,-155 5,-3 100,87 213,200 l 204,204 -205,205 c -113,113 -208,205 -212,205 -5,0 -8,-67 -8,-150 v -150 h -37 c -21,0 -67,7 -103,16 -223,52 -412,241 -464,464 -29,123 -16,277 32,391 l 20,46 -77,77 -77,77 z"
       style="fill:#005bbb;fill-opacity:1" />
  </g>
</svg>
